<?xml version="1.0" encoding="UTF-8" standalone="no"?>
<!DOCTYPE svg PUBLIC "-//W3C//DTD SVG 1.1//EN"
 "http://www.w3.org/Graphics/SVG/1.1/DTD/svg11.dtd">
<!-- Generated by graphviz version 2.43.0 (0)
 -->
<!-- Title: G Pages: 1 -->
<svg width="2914pt" height="884pt"
 viewBox="0.00 0.00 2914.20 884.20" xmlns="http://www.w3.org/2000/svg" xmlns:xlink="http://www.w3.org/1999/xlink">
<g id="graph0" class="graph" transform="scale(1 1) rotate(0) translate(21.6 862.6)">
<title>G</title>
<polygon fill="#111111" stroke="transparent" points="-21.6,21.6 -21.6,-862.6 2892.6,-862.6 2892.6,21.6 -21.6,21.6"/>
<!-- config/config.js -->
<g id="node1" class="node">
<title>config/config.js</title>
<path fill="none" stroke="#cfffac" d="M2363.83,-522C2363.83,-522 2273.17,-522 2273.17,-522 2269.33,-522 2265.5,-518.17 2265.5,-514.33 2265.5,-514.33 2265.5,-506.67 2265.5,-506.67 2265.5,-502.83 2269.33,-499 2273.17,-499 2273.17,-499 2363.83,-499 2363.83,-499 2367.67,-499 2371.5,-502.83 2371.5,-506.67 2371.5,-506.67 2371.5,-514.33 2371.5,-514.33 2371.5,-518.17 2367.67,-522 2363.83,-522"/>
<text text-anchor="middle" x="2318.5" y="-506.8" font-family="Arial" font-size="14.00" fill="#cfffac">config/config.js</text>
</g>
<!-- controllers/Instagram/delete.js -->
<g id="node2" class="node">
<title>controllers/Instagram/delete.js</title>
<path fill="none" stroke="#c6c5fe" d="M1729.33,-841C1729.33,-841 1547.67,-841 1547.67,-841 1543.83,-841 1540,-837.17 1540,-833.33 1540,-833.33 1540,-825.67 1540,-825.67 1540,-821.83 1543.83,-818 1547.67,-818 1547.67,-818 1729.33,-818 1729.33,-818 1733.17,-818 1737,-821.83 1737,-825.67 1737,-825.67 1737,-833.33 1737,-833.33 1737,-837.17 1733.17,-841 1729.33,-841"/>
<text text-anchor="middle" x="1638.5" y="-825.8" font-family="Arial" font-size="14.00" fill="#c6c5fe">controllers/Instagram/delete.js</text>
</g>
<!-- controllers/Instagram/login.js -->
<g id="node3" class="node">
<title>controllers/Instagram/login.js</title>
<path fill="none" stroke="#c6c5fe" d="M2097.33,-719C2097.33,-719 1923.67,-719 1923.67,-719 1919.83,-719 1916,-715.17 1916,-711.33 1916,-711.33 1916,-703.67 1916,-703.67 1916,-699.83 1919.83,-696 1923.67,-696 1923.67,-696 2097.33,-696 2097.33,-696 2101.17,-696 2105,-699.83 2105,-703.67 2105,-703.67 2105,-711.33 2105,-711.33 2105,-715.17 2101.17,-719 2097.33,-719"/>
<text text-anchor="middle" x="2010.5" y="-703.8" font-family="Arial" font-size="14.00" fill="#c6c5fe">controllers/Instagram/login.js</text>
</g>
<!-- controllers/Instagram/delete.js&#45;&gt;controllers/Instagram/login.js -->
<g id="edge1" class="edge">
<title>controllers/Instagram/delete.js&#45;&gt;controllers/Instagram/login.js</title>
<path fill="none" stroke="#757575" d="M1737.32,-822.51C1758.26,-819.58 1780.08,-815.41 1800,-809.5 1869.11,-788.99 1943.53,-747.6 1982.37,-724.35"/>
<polygon fill="#757575" stroke="#757575" points="1984.26,-727.29 1991,-719.12 1980.64,-721.31 1984.26,-727.29"/>
</g>
<!-- controllers/Instagram/login.js&#45;&gt;config/config.js -->
<g id="edge10" class="edge">
<title>controllers/Instagram/login.js&#45;&gt;config/config.js</title>
<path fill="none" stroke="#757575" d="M2030.93,-695.9C2063.19,-676.55 2129.75,-636.28 2185,-600.5 2222.96,-575.92 2266.16,-546.25 2292.62,-527.88"/>
<polygon fill="#757575" stroke="#757575" points="2294.71,-530.69 2300.92,-522.1 2290.72,-524.94 2294.71,-530.69"/>
</g>
<!-- controllers/Instagram/editMedia.js -->
<g id="node4" class="node">
<title>controllers/Instagram/editMedia.js</title>
<path fill="none" stroke="#c6c5fe" d="M1740.83,-800C1740.83,-800 1536.17,-800 1536.17,-800 1532.33,-800 1528.5,-796.17 1528.5,-792.33 1528.5,-792.33 1528.5,-784.67 1528.5,-784.67 1528.5,-780.83 1532.33,-777 1536.17,-777 1536.17,-777 1740.83,-777 1740.83,-777 1744.67,-777 1748.5,-780.83 1748.5,-784.67 1748.5,-784.67 1748.5,-792.33 1748.5,-792.33 1748.5,-796.17 1744.67,-800 1740.83,-800"/>
<text text-anchor="middle" x="1638.5" y="-784.8" font-family="Arial" font-size="14.00" fill="#c6c5fe">controllers/Instagram/editMedia.js</text>
</g>
<!-- controllers/Instagram/editMedia.js&#45;&gt;controllers/Instagram/login.js -->
<g id="edge2" class="edge">
<title>controllers/Instagram/editMedia.js&#45;&gt;controllers/Instagram/login.js</title>
<path fill="none" stroke="#757575" d="M1748.67,-777.27C1765.92,-774.82 1783.5,-771.91 1800,-768.5 1858.39,-756.44 1924.17,-736.15 1966.18,-722.31"/>
<polygon fill="#757575" stroke="#757575" points="1967.42,-725.59 1975.81,-719.12 1965.22,-718.95 1967.42,-725.59"/>
</g>
<!-- controllers/Instagram/feedUser.js -->
<g id="node5" class="node">
<title>controllers/Instagram/feedUser.js</title>
<path fill="none" stroke="#c6c5fe" d="M1738.33,-759C1738.33,-759 1538.67,-759 1538.67,-759 1534.83,-759 1531,-755.17 1531,-751.33 1531,-751.33 1531,-743.67 1531,-743.67 1531,-739.83 1534.83,-736 1538.67,-736 1538.67,-736 1738.33,-736 1738.33,-736 1742.17,-736 1746,-739.83 1746,-743.67 1746,-743.67 1746,-751.33 1746,-751.33 1746,-755.17 1742.17,-759 1738.33,-759"/>
<text text-anchor="middle" x="1638.5" y="-743.8" font-family="Arial" font-size="14.00" fill="#c6c5fe">controllers/Instagram/feedUser.js</text>
</g>
<!-- controllers/Instagram/feedUser.js&#45;&gt;controllers/Instagram/login.js -->
<g id="edge3" class="edge">
<title>controllers/Instagram/feedUser.js&#45;&gt;controllers/Instagram/login.js</title>
<path fill="none" stroke="#757575" d="M1746.02,-735.98C1796.25,-730.55 1855.96,-724.1 1905.83,-718.71"/>
<polygon fill="#757575" stroke="#757575" points="1906.42,-722.16 1915.99,-717.61 1905.67,-715.2 1906.42,-722.16"/>
</g>
<!-- controllers/Instagram/index.js -->
<g id="node6" class="node">
<title>controllers/Instagram/index.js</title>
<path fill="none" stroke="#c6c5fe" d="M1433.33,-719C1433.33,-719 1255.67,-719 1255.67,-719 1251.83,-719 1248,-715.17 1248,-711.33 1248,-711.33 1248,-703.67 1248,-703.67 1248,-699.83 1251.83,-696 1255.67,-696 1255.67,-696 1433.33,-696 1433.33,-696 1437.17,-696 1441,-699.83 1441,-703.67 1441,-703.67 1441,-711.33 1441,-711.33 1441,-715.17 1437.17,-719 1433.33,-719"/>
<text text-anchor="middle" x="1344.5" y="-703.8" font-family="Arial" font-size="14.00" fill="#c6c5fe">controllers/Instagram/index.js</text>
</g>
<!-- controllers/Instagram/index.js&#45;&gt;controllers/Instagram/delete.js -->
<g id="edge4" class="edge">
<title>controllers/Instagram/index.js&#45;&gt;controllers/Instagram/delete.js</title>
<path fill="none" stroke="#757575" d="M1356.11,-719.12C1376.89,-741.04 1425.46,-788.2 1477,-809.5 1493.53,-816.33 1511.77,-821 1529.85,-824.16"/>
<polygon fill="#757575" stroke="#757575" points="1529.44,-827.64 1539.87,-825.77 1530.55,-820.73 1529.44,-827.64"/>
</g>
<!-- controllers/Instagram/index.js&#45;&gt;controllers/Instagram/login.js -->
<g id="edge7" class="edge">
<title>controllers/Instagram/index.js&#45;&gt;controllers/Instagram/login.js</title>
<path fill="none" stroke="#757575" d="M1441.34,-707.5C1564.78,-707.5 1778.51,-707.5 1905.69,-707.5"/>
<polygon fill="#757575" stroke="#757575" points="1905.83,-711 1915.83,-707.5 1905.83,-704 1905.83,-711"/>
</g>
<!-- controllers/Instagram/index.js&#45;&gt;controllers/Instagram/editMedia.js -->
<g id="edge5" class="edge">
<title>controllers/Instagram/index.js&#45;&gt;controllers/Instagram/editMedia.js</title>
<path fill="none" stroke="#757575" d="M1365.24,-719.04C1390.33,-733.14 1435.39,-756.57 1477,-768.5 1490.14,-772.27 1504.09,-775.32 1518.06,-777.81"/>
<polygon fill="#757575" stroke="#757575" points="1517.79,-781.31 1528.23,-779.51 1518.95,-774.41 1517.79,-781.31"/>
</g>
<!-- controllers/Instagram/index.js&#45;&gt;controllers/Instagram/feedUser.js -->
<g id="edge6" class="edge">
<title>controllers/Instagram/index.js&#45;&gt;controllers/Instagram/feedUser.js</title>
<path fill="none" stroke="#757575" d="M1429.57,-719.02C1465.14,-723.89 1506.74,-729.59 1543.34,-734.6"/>
<polygon fill="#757575" stroke="#757575" points="1543.14,-738.11 1553.52,-736 1544.09,-731.17 1543.14,-738.11"/>
</g>
<!-- controllers/Instagram/sendAlbum.js -->
<g id="node7" class="node">
<title>controllers/Instagram/sendAlbum.js</title>
<path fill="none" stroke="#c6c5fe" d="M1745.33,-679C1745.33,-679 1531.67,-679 1531.67,-679 1527.83,-679 1524,-675.17 1524,-671.33 1524,-671.33 1524,-663.67 1524,-663.67 1524,-659.83 1527.83,-656 1531.67,-656 1531.67,-656 1745.33,-656 1745.33,-656 1749.17,-656 1753,-659.83 1753,-663.67 1753,-663.67 1753,-671.33 1753,-671.33 1753,-675.17 1749.17,-679 1745.33,-679"/>
<text text-anchor="middle" x="1638.5" y="-663.8" font-family="Arial" font-size="14.00" fill="#c6c5fe">controllers/Instagram/sendAlbum.js</text>
</g>
<!-- controllers/Instagram/index.js&#45;&gt;controllers/Instagram/sendAlbum.js -->
<g id="edge8" class="edge">
<title>controllers/Instagram/index.js&#45;&gt;controllers/Instagram/sendAlbum.js</title>
<path fill="none" stroke="#757575" d="M1429.57,-695.98C1465.14,-691.11 1506.74,-685.41 1543.34,-680.4"/>
<polygon fill="#757575" stroke="#757575" points="1544.09,-683.83 1553.52,-679 1543.14,-676.89 1544.09,-683.83"/>
</g>
<!-- controllers/Instagram/sendOne.js -->
<g id="node8" class="node">
<title>controllers/Instagram/sendOne.js</title>
<path fill="none" stroke="#c6c5fe" d="M1738.83,-638C1738.83,-638 1538.17,-638 1538.17,-638 1534.33,-638 1530.5,-634.17 1530.5,-630.33 1530.5,-630.33 1530.5,-622.67 1530.5,-622.67 1530.5,-618.83 1534.33,-615 1538.17,-615 1538.17,-615 1738.83,-615 1738.83,-615 1742.67,-615 1746.5,-618.83 1746.5,-622.67 1746.5,-622.67 1746.5,-630.33 1746.5,-630.33 1746.5,-634.17 1742.67,-638 1738.83,-638"/>
<text text-anchor="middle" x="1638.5" y="-622.8" font-family="Arial" font-size="14.00" fill="#c6c5fe">controllers/Instagram/sendOne.js</text>
</g>
<!-- controllers/Instagram/index.js&#45;&gt;controllers/Instagram/sendOne.js -->
<g id="edge9" class="edge">
<title>controllers/Instagram/index.js&#45;&gt;controllers/Instagram/sendOne.js</title>
<path fill="none" stroke="#757575" d="M1365.72,-695.96C1390.93,-682.12 1435.75,-659.32 1477,-647.5 1490.83,-643.54 1505.54,-640.32 1520.24,-637.71"/>
<polygon fill="#757575" stroke="#757575" points="1521.12,-641.11 1530.4,-635.99 1519.95,-634.21 1521.12,-641.11"/>
</g>
<!-- controllers/Instagram/sendAlbum.js&#45;&gt;controllers/Instagram/login.js -->
<g id="edge11" class="edge">
<title>controllers/Instagram/sendAlbum.js&#45;&gt;controllers/Instagram/login.js</title>
<path fill="none" stroke="#757575" d="M1746.02,-679.02C1796.25,-684.45 1855.96,-690.9 1905.83,-696.29"/>
<polygon fill="#757575" stroke="#757575" points="1905.67,-699.8 1915.99,-697.39 1906.42,-692.84 1905.67,-699.8"/>
</g>
<!-- controllers/Instagram/sendOne.js&#45;&gt;controllers/Instagram/login.js -->
<g id="edge12" class="edge">
<title>controllers/Instagram/sendOne.js&#45;&gt;controllers/Instagram/login.js</title>
<path fill="none" stroke="#757575" d="M1745.2,-638.05C1763.55,-640.71 1782.39,-643.85 1800,-647.5 1857.96,-659.52 1923.33,-679.26 1965.4,-692.79"/>
<polygon fill="#757575" stroke="#757575" points="1964.46,-696.17 1975.05,-695.92 1966.62,-689.51 1964.46,-696.17"/>
</g>
<!-- controllers/fs/fsUtil.js -->
<g id="node9" class="node">
<title>controllers/fs/fsUtil.js</title>
<path fill="none" stroke="#cfffac" d="M1406.83,-513C1406.83,-513 1282.17,-513 1282.17,-513 1278.33,-513 1274.5,-509.17 1274.5,-505.33 1274.5,-505.33 1274.5,-497.67 1274.5,-497.67 1274.5,-493.83 1278.33,-490 1282.17,-490 1282.17,-490 1406.83,-490 1406.83,-490 1410.67,-490 1414.5,-493.83 1414.5,-497.67 1414.5,-497.67 1414.5,-505.33 1414.5,-505.33 1414.5,-509.17 1410.67,-513 1406.83,-513"/>
<text text-anchor="middle" x="1344.5" y="-497.8" font-family="Arial" font-size="14.00" fill="#cfffac">controllers/fs/fsUtil.js</text>
</g>
<!-- controllers/notion/index.js -->
<g id="node10" class="node">
<title>controllers/notion/index.js</title>
<path fill="none" stroke="#c6c5fe" d="M1421.33,-554C1421.33,-554 1267.67,-554 1267.67,-554 1263.83,-554 1260,-550.17 1260,-546.33 1260,-546.33 1260,-538.67 1260,-538.67 1260,-534.83 1263.83,-531 1267.67,-531 1267.67,-531 1421.33,-531 1421.33,-531 1425.17,-531 1429,-534.83 1429,-538.67 1429,-538.67 1429,-546.33 1429,-546.33 1429,-550.17 1425.17,-554 1421.33,-554"/>
<text text-anchor="middle" x="1344.5" y="-538.8" font-family="Arial" font-size="14.00" fill="#c6c5fe">controllers/notion/index.js</text>
</g>
<!-- controllers/notion/index.js&#45;&gt;config/config.js -->
<g id="edge13" class="edge">
<title>controllers/notion/index.js&#45;&gt;config/config.js</title>
<path fill="none" stroke="#757575" d="M1404.83,-554.02C1427.34,-557.85 1453.26,-561.62 1477,-563.5 1790.88,-588.4 1873.07,-581.36 2185,-538.5 2210.17,-535.04 2237.7,-529.51 2261.11,-524.28"/>
<polygon fill="#757575" stroke="#757575" points="2261.9,-527.69 2270.88,-522.06 2260.35,-520.86 2261.9,-527.69"/>
</g>
<!-- controllers/notion/notionControllers/notionCreate.js -->
<g id="node11" class="node">
<title>controllers/notion/notionControllers/notionCreate.js</title>
<path fill="none" stroke="#c6c5fe" d="M1790.83,-504C1790.83,-504 1486.17,-504 1486.17,-504 1482.33,-504 1478.5,-500.17 1478.5,-496.33 1478.5,-496.33 1478.5,-488.67 1478.5,-488.67 1478.5,-484.83 1482.33,-481 1486.17,-481 1486.17,-481 1790.83,-481 1790.83,-481 1794.67,-481 1798.5,-484.83 1798.5,-488.67 1798.5,-488.67 1798.5,-496.33 1798.5,-496.33 1798.5,-500.17 1794.67,-504 1790.83,-504"/>
<text text-anchor="middle" x="1638.5" y="-488.8" font-family="Arial" font-size="14.00" fill="#c6c5fe">controllers/notion/notionControllers/notionCreate.js</text>
</g>
<!-- controllers/notion/index.js&#45;&gt;controllers/notion/notionControllers/notionCreate.js -->
<g id="edge14" class="edge">
<title>controllers/notion/index.js&#45;&gt;controllers/notion/notionControllers/notionCreate.js</title>
<path fill="none" stroke="#757575" d="M1412.86,-530.97C1456.87,-523.43 1514.48,-513.57 1560.33,-505.71"/>
<polygon fill="#757575" stroke="#757575" points="1560.96,-509.16 1570.23,-504.02 1559.78,-502.26 1560.96,-509.16"/>
</g>
<!-- controllers/notion/notionControllers/notionQuery.js -->
<g id="node12" class="node">
<title>controllers/notion/notionControllers/notionQuery.js</title>
<path fill="none" stroke="#c6c5fe" d="M1788.83,-554C1788.83,-554 1488.17,-554 1488.17,-554 1484.33,-554 1480.5,-550.17 1480.5,-546.33 1480.5,-546.33 1480.5,-538.67 1480.5,-538.67 1480.5,-534.83 1484.33,-531 1488.17,-531 1488.17,-531 1788.83,-531 1788.83,-531 1792.67,-531 1796.5,-534.83 1796.5,-538.67 1796.5,-538.67 1796.5,-546.33 1796.5,-546.33 1796.5,-550.17 1792.67,-554 1788.83,-554"/>
<text text-anchor="middle" x="1638.5" y="-538.8" font-family="Arial" font-size="14.00" fill="#c6c5fe">controllers/notion/notionControllers/notionQuery.js</text>
</g>
<!-- controllers/notion/index.js&#45;&gt;controllers/notion/notionControllers/notionQuery.js -->
<g id="edge15" class="edge">
<title>controllers/notion/index.js&#45;&gt;controllers/notion/notionControllers/notionQuery.js</title>
<path fill="none" stroke="#757575" d="M1429.18,-542.5C1442.19,-542.5 1456.03,-542.5 1470.13,-542.5"/>
<polygon fill="#757575" stroke="#757575" points="1470.44,-546 1480.44,-542.5 1470.44,-539 1470.44,-546"/>
</g>
<!-- controllers/notion/notionControllers/notionUpdate.js -->
<g id="node13" class="node">
<title>controllers/notion/notionControllers/notionUpdate.js</title>
<path fill="none" stroke="#c6c5fe" d="M1792.33,-446C1792.33,-446 1484.67,-446 1484.67,-446 1480.83,-446 1477,-442.17 1477,-438.33 1477,-438.33 1477,-430.67 1477,-430.67 1477,-426.83 1480.83,-423 1484.67,-423 1484.67,-423 1792.33,-423 1792.33,-423 1796.17,-423 1800,-426.83 1800,-430.67 1800,-430.67 1800,-438.33 1800,-438.33 1800,-442.17 1796.17,-446 1792.33,-446"/>
<text text-anchor="middle" x="1638.5" y="-430.8" font-family="Arial" font-size="14.00" fill="#c6c5fe">controllers/notion/notionControllers/notionUpdate.js</text>
</g>
<!-- controllers/notion/index.js&#45;&gt;controllers/notion/notionControllers/notionUpdate.js -->
<g id="edge16" class="edge">
<title>controllers/notion/index.js&#45;&gt;controllers/notion/notionControllers/notionUpdate.js</title>
<path fill="none" stroke="#757575" d="M1424.54,-530.94C1430.32,-528.61 1435.89,-525.82 1441,-522.5 1463.96,-507.57 1454.24,-487.73 1477,-472.5 1492.81,-461.92 1511.22,-454.28 1529.82,-448.75"/>
<polygon fill="#757575" stroke="#757575" points="1530.84,-452.1 1539.54,-446.05 1528.97,-445.35 1530.84,-452.1"/>
</g>
<!-- controllers/notion/notionControllers/notionCreate.js&#45;&gt;config/config.js -->
<g id="edge18" class="edge">
<title>controllers/notion/notionControllers/notionCreate.js&#45;&gt;config/config.js</title>
<path fill="none" stroke="#757575" d="M1798.89,-496.73C1944.59,-500.6 2152.54,-506.12 2255.22,-508.85"/>
<polygon fill="#757575" stroke="#757575" points="2255.33,-512.35 2265.42,-509.12 2255.52,-505.35 2255.33,-512.35"/>
</g>
<!-- controllers/notion/notionControllers/loging.js -->
<g id="node14" class="node">
<title>controllers/notion/notionControllers/loging.js</title>
<path fill="none" stroke="#c6c5fe" d="M2141.83,-482C2141.83,-482 1879.17,-482 1879.17,-482 1875.33,-482 1871.5,-478.17 1871.5,-474.33 1871.5,-474.33 1871.5,-466.67 1871.5,-466.67 1871.5,-462.83 1875.33,-459 1879.17,-459 1879.17,-459 2141.83,-459 2141.83,-459 2145.67,-459 2149.5,-462.83 2149.5,-466.67 2149.5,-466.67 2149.5,-474.33 2149.5,-474.33 2149.5,-478.17 2145.67,-482 2141.83,-482"/>
<text text-anchor="middle" x="2010.5" y="-466.8" font-family="Arial" font-size="14.00" fill="#c6c5fe">controllers/notion/notionControllers/loging.js</text>
</g>
<!-- controllers/notion/notionControllers/notionCreate.js&#45;&gt;controllers/notion/notionControllers/loging.js -->
<g id="edge19" class="edge">
<title>controllers/notion/notionControllers/notionCreate.js&#45;&gt;controllers/notion/notionControllers/loging.js</title>
<path fill="none" stroke="#757575" d="M1798.56,-483.04C1819.35,-481.81 1840.58,-480.54 1861.18,-479.32"/>
<polygon fill="#757575" stroke="#757575" points="1861.47,-482.81 1871.24,-478.72 1861.05,-475.82 1861.47,-482.81"/>
</g>
<!-- controllers/notion/notionControllers/schemas/schema.js -->
<g id="node15" class="node">
<title>controllers/notion/notionControllers/schemas/schema.js</title>
<path fill="none" stroke="#cfffac" d="M2177.33,-441C2177.33,-441 1843.67,-441 1843.67,-441 1839.83,-441 1836,-437.17 1836,-433.33 1836,-433.33 1836,-425.67 1836,-425.67 1836,-421.83 1839.83,-418 1843.67,-418 1843.67,-418 2177.33,-418 2177.33,-418 2181.17,-418 2185,-421.83 2185,-425.67 2185,-425.67 2185,-433.33 2185,-433.33 2185,-437.17 2181.17,-441 2177.33,-441"/>
<text text-anchor="middle" x="2010.5" y="-425.8" font-family="Arial" font-size="14.00" fill="#cfffac">controllers/notion/notionControllers/schemas/schema.js</text>
</g>
<!-- controllers/notion/notionControllers/notionCreate.js&#45;&gt;controllers/notion/notionControllers/schemas/schema.js -->
<g id="edge20" class="edge">
<title>controllers/notion/notionControllers/notionCreate.js&#45;&gt;controllers/notion/notionControllers/schemas/schema.js</title>
<path fill="none" stroke="#757575" d="M1687.72,-480.92C1727.36,-471.71 1785.08,-459.01 1836,-450.5 1853.88,-447.51 1872.87,-444.78 1891.48,-442.33"/>
<polygon fill="#757575" stroke="#757575" points="1891.99,-445.8 1901.46,-441.05 1891.1,-438.86 1891.99,-445.8"/>
</g>
<!-- controllers/notion/notionControllers/notionQuery.js&#45;&gt;config/config.js -->
<g id="edge21" class="edge">
<title>controllers/notion/notionControllers/notionQuery.js&#45;&gt;config/config.js</title>
<path fill="none" stroke="#757575" d="M1796.75,-535.08C1942.55,-528.2 2152.02,-518.31 2255.21,-513.44"/>
<polygon fill="#757575" stroke="#757575" points="2255.64,-516.92 2265.46,-512.96 2255.31,-509.93 2255.64,-516.92"/>
</g>
<!-- controllers/notion/notionControllers/notionQuery.js&#45;&gt;controllers/notion/notionControllers/loging.js -->
<g id="edge22" class="edge">
<title>controllers/notion/notionControllers/notionQuery.js&#45;&gt;controllers/notion/notionControllers/loging.js</title>
<path fill="none" stroke="#757575" d="M1705.16,-531C1734.25,-525.81 1768.86,-519.51 1800,-513.5 1848.67,-504.11 1903.55,-492.82 1944.92,-484.17"/>
<polygon fill="#757575" stroke="#757575" points="1945.8,-487.56 1954.87,-482.08 1944.37,-480.71 1945.8,-487.56"/>
</g>
<!-- controllers/notion/notionControllers/notionUpdate.js&#45;&gt;config/config.js -->
<g id="edge23" class="edge">
<title>controllers/notion/notionControllers/notionUpdate.js&#45;&gt;config/config.js</title>
<path fill="none" stroke="#757575" d="M1679.91,-422.91C1772.3,-398.47 2004.91,-348.69 2185,-409.5 2232.76,-425.63 2276.91,-466.61 2300.22,-491.13"/>
<polygon fill="#757575" stroke="#757575" points="2297.93,-493.81 2307.3,-498.76 2303.06,-489.05 2297.93,-493.81"/>
</g>
<!-- controllers/notion/notionControllers/notionUpdate.js&#45;&gt;controllers/notion/notionControllers/loging.js -->
<g id="edge24" class="edge">
<title>controllers/notion/notionControllers/notionUpdate.js&#45;&gt;controllers/notion/notionControllers/loging.js</title>
<path fill="none" stroke="#757575" d="M1757.84,-446.01C1797.12,-449.84 1841.02,-454.11 1881.02,-458"/>
<polygon fill="#757575" stroke="#757575" points="1880.81,-461.5 1891.1,-458.98 1881.49,-454.53 1880.81,-461.5"/>
</g>
<!-- controllers/notion/notionControllers/notionUpdate.js&#45;&gt;controllers/notion/notionControllers/schemas/schema.js -->
<g id="edge25" class="edge">
<title>controllers/notion/notionControllers/notionUpdate.js&#45;&gt;controllers/notion/notionControllers/schemas/schema.js</title>
<path fill="none" stroke="#757575" d="M1800.17,-432.33C1808.65,-432.21 1817.2,-432.1 1825.75,-431.98"/>
<polygon fill="#757575" stroke="#757575" points="1825.82,-435.48 1835.78,-431.85 1825.73,-428.48 1825.82,-435.48"/>
</g>
<!-- controllers/notion/notionControllers/loging.js&#45;&gt;config/config.js -->
<g id="edge17" class="edge">
<title>controllers/notion/notionControllers/loging.js&#45;&gt;config/config.js</title>
<path fill="none" stroke="#757575" d="M2099.6,-482.02C2149.39,-488.53 2210.45,-496.51 2255.25,-502.36"/>
<polygon fill="#757575" stroke="#757575" points="2255.04,-505.86 2265.41,-503.69 2255.95,-498.92 2255.04,-505.86"/>
</g>
<!-- controllers/orchestrator/index.js -->
<g id="node16" class="node">
<title>controllers/orchestrator/index.js</title>
<path fill="none" stroke="#c6c5fe" d="M516.33,-473C516.33,-473 327.67,-473 327.67,-473 323.83,-473 320,-469.17 320,-465.33 320,-465.33 320,-457.67 320,-457.67 320,-453.83 323.83,-450 327.67,-450 327.67,-450 516.33,-450 516.33,-450 520.17,-450 524,-453.83 524,-457.67 524,-457.67 524,-465.33 524,-465.33 524,-469.17 520.17,-473 516.33,-473"/>
<text text-anchor="middle" x="422" y="-457.8" font-family="Arial" font-size="14.00" fill="#c6c5fe">controllers/orchestrator/index.js</text>
</g>
<!-- services/admin/notion.services.js -->
<g id="node17" class="node">
<title>services/admin/notion.services.js</title>
<path fill="none" stroke="#c6c5fe" d="M1157.33,-554C1157.33,-554 957.67,-554 957.67,-554 953.83,-554 950,-550.17 950,-546.33 950,-546.33 950,-538.67 950,-538.67 950,-534.83 953.83,-531 957.67,-531 957.67,-531 1157.33,-531 1157.33,-531 1161.17,-531 1165,-534.83 1165,-538.67 1165,-538.67 1165,-546.33 1165,-546.33 1165,-550.17 1161.17,-554 1157.33,-554"/>
<text text-anchor="middle" x="1057.5" y="-538.8" font-family="Arial" font-size="14.00" fill="#c6c5fe">services/admin/notion.services.js</text>
</g>
<!-- controllers/orchestrator/index.js&#45;&gt;services/admin/notion.services.js -->
<g id="edge26" class="edge">
<title>controllers/orchestrator/index.js&#45;&gt;services/admin/notion.services.js</title>
<path fill="none" stroke="#757575" d="M495.46,-473.05C516.28,-476.25 539.02,-479.63 560,-482.5 691.19,-500.48 842.29,-518.33 943.01,-529.83"/>
<polygon fill="#757575" stroke="#757575" points="942.87,-533.33 953.2,-530.99 943.66,-526.38 942.87,-533.33"/>
</g>
<!-- services/admin/publications/publishing.service.js -->
<g id="node18" class="node">
<title>services/admin/publications/publishing.service.js</title>
<path fill="none" stroke="#c6c5fe" d="M859.33,-473C859.33,-473 567.67,-473 567.67,-473 563.83,-473 560,-469.17 560,-465.33 560,-465.33 560,-457.67 560,-457.67 560,-453.83 563.83,-450 567.67,-450 567.67,-450 859.33,-450 859.33,-450 863.17,-450 867,-453.83 867,-457.67 867,-457.67 867,-465.33 867,-465.33 867,-469.17 863.17,-473 859.33,-473"/>
<text text-anchor="middle" x="713.5" y="-457.8" font-family="Arial" font-size="14.00" fill="#c6c5fe">services/admin/publications/publishing.service.js</text>
</g>
<!-- controllers/orchestrator/index.js&#45;&gt;services/admin/publications/publishing.service.js -->
<g id="edge27" class="edge">
<title>controllers/orchestrator/index.js&#45;&gt;services/admin/publications/publishing.service.js</title>
<path fill="none" stroke="#757575" d="M524.25,-461.5C532.57,-461.5 541.11,-461.5 549.72,-461.5"/>
<polygon fill="#757575" stroke="#757575" points="549.88,-465 559.87,-461.5 549.87,-458 549.88,-465"/>
</g>
<!-- services/admin/notion.services.js&#45;&gt;controllers/notion/index.js -->
<g id="edge77" class="edge">
<title>services/admin/notion.services.js&#45;&gt;controllers/notion/index.js</title>
<path fill="none" stroke="#757575" d="M1165.03,-542.5C1192.79,-542.5 1222.49,-542.5 1249.55,-542.5"/>
<polygon fill="#757575" stroke="#757575" points="1249.78,-546 1259.78,-542.5 1249.78,-539 1249.78,-546"/>
</g>
<!-- libs/sequelize.js -->
<g id="node32" class="node">
<title>libs/sequelize.js</title>
<path fill="none" stroke="#c6c5fe" d="M1392.33,-289C1392.33,-289 1296.67,-289 1296.67,-289 1292.83,-289 1289,-285.17 1289,-281.33 1289,-281.33 1289,-273.67 1289,-273.67 1289,-269.83 1292.83,-266 1296.67,-266 1296.67,-266 1392.33,-266 1392.33,-266 1396.17,-266 1400,-269.83 1400,-273.67 1400,-273.67 1400,-281.33 1400,-281.33 1400,-285.17 1396.17,-289 1392.33,-289"/>
<text text-anchor="middle" x="1344.5" y="-273.8" font-family="Arial" font-size="14.00" fill="#c6c5fe">libs/sequelize.js</text>
</g>
<!-- services/admin/publications/publishing.service.js&#45;&gt;libs/sequelize.js -->
<g id="edge80" class="edge">
<title>services/admin/publications/publishing.service.js&#45;&gt;libs/sequelize.js</title>
<path fill="none" stroke="#757575" d="M867.23,-469.38C990.87,-473.26 1153.71,-471.96 1212,-442.5 1274.15,-411.08 1316.52,-335.32 1334.21,-298.41"/>
<polygon fill="#757575" stroke="#757575" points="1337.49,-299.65 1338.54,-289.1 1331.15,-296.69 1337.49,-299.65"/>
</g>
<!-- services/admin/publications/collections.service.js -->
<g id="node52" class="node">
<title>services/admin/publications/collections.service.js</title>
<path fill="none" stroke="#c6c5fe" d="M1204.33,-513C1204.33,-513 910.67,-513 910.67,-513 906.83,-513 903,-509.17 903,-505.33 903,-505.33 903,-497.67 903,-497.67 903,-493.83 906.83,-490 910.67,-490 910.67,-490 1204.33,-490 1204.33,-490 1208.17,-490 1212,-493.83 1212,-497.67 1212,-497.67 1212,-505.33 1212,-505.33 1212,-509.17 1208.17,-513 1204.33,-513"/>
<text text-anchor="middle" x="1057.5" y="-497.8" font-family="Arial" font-size="14.00" fill="#c6c5fe">services/admin/publications/collections.service.js</text>
</g>
<!-- services/admin/publications/publishing.service.js&#45;&gt;services/admin/publications/collections.service.js -->
<g id="edge81" class="edge">
<title>services/admin/publications/publishing.service.js&#45;&gt;services/admin/publications/collections.service.js</title>
<path fill="none" stroke="#757575" d="M812.96,-473.02C855.25,-477.96 904.81,-483.76 948.14,-488.83"/>
<polygon fill="#757575" stroke="#757575" points="947.8,-492.31 958.14,-490 948.62,-485.36 947.8,-492.31"/>
</g>
<!-- services/admin/publications/garments.service.js -->
<g id="node53" class="node">
<title>services/admin/publications/garments.service.js</title>
<path fill="none" stroke="#cfffac" d="M1201.33,-433C1201.33,-433 913.67,-433 913.67,-433 909.83,-433 906,-429.17 906,-425.33 906,-425.33 906,-417.67 906,-417.67 906,-413.83 909.83,-410 913.67,-410 913.67,-410 1201.33,-410 1201.33,-410 1205.17,-410 1209,-413.83 1209,-417.67 1209,-417.67 1209,-425.33 1209,-425.33 1209,-429.17 1205.17,-433 1201.33,-433"/>
<text text-anchor="middle" x="1057.5" y="-417.8" font-family="Arial" font-size="14.00" fill="#cfffac">services/admin/publications/garments.service.js</text>
</g>
<!-- services/admin/publications/publishing.service.js&#45;&gt;services/admin/publications/garments.service.js -->
<g id="edge82" class="edge">
<title>services/admin/publications/publishing.service.js&#45;&gt;services/admin/publications/garments.service.js</title>
<path fill="none" stroke="#757575" d="M812.96,-449.98C855.25,-445.04 904.81,-439.24 948.14,-434.17"/>
<polygon fill="#757575" stroke="#757575" points="948.62,-437.64 958.14,-433 947.8,-430.69 948.62,-437.64"/>
</g>
<!-- controllers/upload.js -->
<g id="node19" class="node">
<title>controllers/upload.js</title>
<path fill="none" stroke="#cfffac" d="M1118.33,-595C1118.33,-595 996.67,-595 996.67,-595 992.83,-595 989,-591.17 989,-587.33 989,-587.33 989,-579.67 989,-579.67 989,-575.83 992.83,-572 996.67,-572 996.67,-572 1118.33,-572 1118.33,-572 1122.17,-572 1126,-575.83 1126,-579.67 1126,-579.67 1126,-587.33 1126,-587.33 1126,-591.17 1122.17,-595 1118.33,-595"/>
<text text-anchor="middle" x="1057.5" y="-579.8" font-family="Arial" font-size="14.00" fill="#cfffac">controllers/upload.js</text>
</g>
<!-- db/models/category.model.js -->
<g id="node20" class="node">
<title>db/models/category.model.js</title>
<path fill="none" stroke="#cfffac" d="M2863.33,-305C2863.33,-305 2689.67,-305 2689.67,-305 2685.83,-305 2682,-301.17 2682,-297.33 2682,-297.33 2682,-289.67 2682,-289.67 2682,-285.83 2685.83,-282 2689.67,-282 2689.67,-282 2863.33,-282 2863.33,-282 2867.17,-282 2871,-285.83 2871,-289.67 2871,-289.67 2871,-297.33 2871,-297.33 2871,-301.17 2867.17,-305 2863.33,-305"/>
<text text-anchor="middle" x="2776.5" y="-289.8" font-family="Arial" font-size="14.00" fill="#cfffac">db/models/category.model.js</text>
</g>
<!-- db/models/collection.model.js -->
<g id="node21" class="node">
<title>db/models/collection.model.js</title>
<path fill="none" stroke="#c6c5fe" d="M2099.83,-91C2099.83,-91 1921.17,-91 1921.17,-91 1917.33,-91 1913.5,-87.17 1913.5,-83.33 1913.5,-83.33 1913.5,-75.67 1913.5,-75.67 1913.5,-71.83 1917.33,-68 1921.17,-68 1921.17,-68 2099.83,-68 2099.83,-68 2103.67,-68 2107.5,-71.83 2107.5,-75.67 2107.5,-75.67 2107.5,-83.33 2107.5,-83.33 2107.5,-87.17 2103.67,-91 2099.83,-91"/>
<text text-anchor="middle" x="2010.5" y="-75.8" font-family="Arial" font-size="14.00" fill="#c6c5fe">db/models/collection.model.js</text>
</g>
<!-- db/models/garments.model.js -->
<g id="node22" class="node">
<title>db/models/garments.model.js</title>
<path fill="none" stroke="#cfffac" d="M2408.33,-71C2408.33,-71 2228.67,-71 2228.67,-71 2224.83,-71 2221,-67.17 2221,-63.33 2221,-63.33 2221,-55.67 2221,-55.67 2221,-51.83 2224.83,-48 2228.67,-48 2228.67,-48 2408.33,-48 2408.33,-48 2412.17,-48 2416,-51.83 2416,-55.67 2416,-55.67 2416,-63.33 2416,-63.33 2416,-67.17 2412.17,-71 2408.33,-71"/>
<text text-anchor="middle" x="2318.5" y="-55.8" font-family="Arial" font-size="14.00" fill="#cfffac">db/models/garments.model.js</text>
</g>
<!-- db/models/collection.model.js&#45;&gt;db/models/garments.model.js -->
<g id="edge28" class="edge">
<title>db/models/collection.model.js&#45;&gt;db/models/garments.model.js</title>
<path fill="none" stroke="#757575" d="M2107.9,-73.2C2140.53,-71.07 2177.15,-68.67 2210.54,-66.49"/>
<polygon fill="#757575" stroke="#757575" points="2211.05,-69.97 2220.8,-65.82 2210.59,-62.98 2211.05,-69.97"/>
</g>
<!-- db/models/customer.model.js -->
<g id="node23" class="node">
<title>db/models/customer.model.js</title>
<path fill="none" stroke="#c6c5fe" d="M2638.33,-171C2638.33,-171 2459.67,-171 2459.67,-171 2455.83,-171 2452,-167.17 2452,-163.33 2452,-163.33 2452,-155.67 2452,-155.67 2452,-151.83 2455.83,-148 2459.67,-148 2459.67,-148 2638.33,-148 2638.33,-148 2642.17,-148 2646,-151.83 2646,-155.67 2646,-155.67 2646,-163.33 2646,-163.33 2646,-167.17 2642.17,-171 2638.33,-171"/>
<text text-anchor="middle" x="2549" y="-155.8" font-family="Arial" font-size="14.00" fill="#c6c5fe">db/models/customer.model.js</text>
</g>
<!-- db/models/user.model.js -->
<g id="node24" class="node">
<title>db/models/user.model.js</title>
<path fill="none" stroke="#cfffac" d="M2850.83,-151C2850.83,-151 2702.17,-151 2702.17,-151 2698.33,-151 2694.5,-147.17 2694.5,-143.33 2694.5,-143.33 2694.5,-135.67 2694.5,-135.67 2694.5,-131.83 2698.33,-128 2702.17,-128 2702.17,-128 2850.83,-128 2850.83,-128 2854.67,-128 2858.5,-131.83 2858.5,-135.67 2858.5,-135.67 2858.5,-143.33 2858.5,-143.33 2858.5,-147.17 2854.67,-151 2850.83,-151"/>
<text text-anchor="middle" x="2776.5" y="-135.8" font-family="Arial" font-size="14.00" fill="#cfffac">db/models/user.model.js</text>
</g>
<!-- db/models/customer.model.js&#45;&gt;db/models/user.model.js -->
<g id="edge29" class="edge">
<title>db/models/customer.model.js&#45;&gt;db/models/user.model.js</title>
<path fill="none" stroke="#757575" d="M2646.29,-150.96C2658.94,-149.84 2671.88,-148.69 2684.45,-147.58"/>
<polygon fill="#757575" stroke="#757575" points="2684.78,-151.06 2694.44,-146.69 2684.17,-144.09 2684.78,-151.06"/>
</g>
<!-- db/models/index.js -->
<g id="node25" class="node">
<title>db/models/index.js</title>
<path fill="none" stroke="#c6c5fe" d="M1695.33,-207C1695.33,-207 1581.67,-207 1581.67,-207 1577.83,-207 1574,-203.17 1574,-199.33 1574,-199.33 1574,-191.67 1574,-191.67 1574,-187.83 1577.83,-184 1581.67,-184 1581.67,-184 1695.33,-184 1695.33,-184 1699.17,-184 1703,-187.83 1703,-191.67 1703,-191.67 1703,-199.33 1703,-199.33 1703,-203.17 1699.17,-207 1695.33,-207"/>
<text text-anchor="middle" x="1638.5" y="-191.8" font-family="Arial" font-size="14.00" fill="#c6c5fe">db/models/index.js</text>
</g>
<!-- db/models/index.js&#45;&gt;db/models/category.model.js -->
<g id="edge30" class="edge">
<title>db/models/index.js&#45;&gt;db/models/category.model.js</title>
<path fill="none" stroke="#757575" d="M1659,-207.02C1693.35,-226.6 1767.52,-265.67 1836,-280.5 2133.73,-344.96 2497.04,-322.29 2671.81,-305.31"/>
<polygon fill="#757575" stroke="#757575" points="2672.16,-308.79 2681.77,-304.33 2671.48,-301.83 2672.16,-308.79"/>
</g>
<!-- db/models/index.js&#45;&gt;db/models/collection.model.js -->
<g id="edge31" class="edge">
<title>db/models/index.js&#45;&gt;db/models/collection.model.js</title>
<path fill="none" stroke="#757575" d="M1659.69,-183.93C1694.5,-164.51 1768.57,-125.56 1836,-105.5 1857.49,-99.11 1880.96,-94.24 1903.51,-90.55"/>
<polygon fill="#757575" stroke="#757575" points="1904.11,-94 1913.44,-88.99 1903.02,-87.09 1904.11,-94"/>
</g>
<!-- db/models/index.js&#45;&gt;db/models/garments.model.js -->
<g id="edge33" class="edge">
<title>db/models/index.js&#45;&gt;db/models/garments.model.js</title>
<path fill="none" stroke="#757575" d="M1650.51,-183.99C1678.34,-155.83 1755.06,-83.93 1836,-58.5 1976.43,-14.38 2151.48,-31.43 2247.08,-46.37"/>
<polygon fill="#757575" stroke="#757575" points="2246.78,-49.87 2257.21,-47.99 2247.89,-42.95 2246.78,-49.87"/>
</g>
<!-- db/models/index.js&#45;&gt;db/models/customer.model.js -->
<g id="edge32" class="edge">
<title>db/models/index.js&#45;&gt;db/models/customer.model.js</title>
<path fill="none" stroke="#757575" d="M1703.02,-192.98C1856.99,-186.88 2251.42,-171.25 2441.9,-163.7"/>
<polygon fill="#757575" stroke="#757575" points="2442.07,-167.2 2451.93,-163.31 2441.8,-160.21 2442.07,-167.2"/>
</g>
<!-- db/models/index.js&#45;&gt;db/models/user.model.js -->
<g id="edge37" class="edge">
<title>db/models/index.js&#45;&gt;db/models/user.model.js</title>
<path fill="none" stroke="#757575" d="M1703.09,-186.19C1741.49,-180.87 1791.47,-174.48 1836,-170.5 2109.06,-146.07 2177.95,-145.61 2452,-138.5 2530.34,-136.47 2619.39,-136.95 2684.2,-137.8"/>
<polygon fill="#757575" stroke="#757575" points="2684.34,-141.31 2694.39,-137.95 2684.44,-134.31 2684.34,-141.31"/>
</g>
<!-- db/models/order&#45;product.model.js -->
<g id="node26" class="node">
<title>db/models/order&#45;product.model.js</title>
<path fill="none" stroke="#c6c5fe" d="M2112.33,-247C2112.33,-247 1908.67,-247 1908.67,-247 1904.83,-247 1901,-243.17 1901,-239.33 1901,-239.33 1901,-231.67 1901,-231.67 1901,-227.83 1904.83,-224 1908.67,-224 1908.67,-224 2112.33,-224 2112.33,-224 2116.17,-224 2120,-227.83 2120,-231.67 2120,-231.67 2120,-239.33 2120,-239.33 2120,-243.17 2116.17,-247 2112.33,-247"/>
<text text-anchor="middle" x="2010.5" y="-231.8" font-family="Arial" font-size="14.00" fill="#c6c5fe">db/models/order&#45;product.model.js</text>
</g>
<!-- db/models/index.js&#45;&gt;db/models/order&#45;product.model.js -->
<g id="edge34" class="edge">
<title>db/models/index.js&#45;&gt;db/models/order&#45;product.model.js</title>
<path fill="none" stroke="#757575" d="M1703.11,-202.38C1755.18,-208.01 1830.22,-216.12 1893.01,-222.91"/>
<polygon fill="#757575" stroke="#757575" points="1892.65,-226.39 1902.97,-223.98 1893.41,-219.43 1892.65,-226.39"/>
</g>
<!-- db/models/order.model.js -->
<g id="node27" class="node">
<title>db/models/order.model.js</title>
<path fill="none" stroke="#c6c5fe" d="M2395.33,-209C2395.33,-209 2241.67,-209 2241.67,-209 2237.83,-209 2234,-205.17 2234,-201.33 2234,-201.33 2234,-193.67 2234,-193.67 2234,-189.83 2237.83,-186 2241.67,-186 2241.67,-186 2395.33,-186 2395.33,-186 2399.17,-186 2403,-189.83 2403,-193.67 2403,-193.67 2403,-201.33 2403,-201.33 2403,-205.17 2399.17,-209 2395.33,-209"/>
<text text-anchor="middle" x="2318.5" y="-193.8" font-family="Arial" font-size="14.00" fill="#c6c5fe">db/models/order.model.js</text>
</g>
<!-- db/models/index.js&#45;&gt;db/models/order.model.js -->
<g id="edge35" class="edge">
<title>db/models/index.js&#45;&gt;db/models/order.model.js</title>
<path fill="none" stroke="#757575" d="M1703.28,-195.69C1823.32,-196.04 2083.29,-196.81 2223.44,-197.22"/>
<polygon fill="#757575" stroke="#757575" points="2223.72,-200.72 2233.73,-197.25 2223.74,-193.72 2223.72,-200.72"/>
</g>
<!-- db/models/product.model.js -->
<g id="node28" class="node">
<title>db/models/product.model.js</title>
<path fill="none" stroke="#c6c5fe" d="M2632.83,-267C2632.83,-267 2465.17,-267 2465.17,-267 2461.33,-267 2457.5,-263.17 2457.5,-259.33 2457.5,-259.33 2457.5,-251.67 2457.5,-251.67 2457.5,-247.83 2461.33,-244 2465.17,-244 2465.17,-244 2632.83,-244 2632.83,-244 2636.67,-244 2640.5,-247.83 2640.5,-251.67 2640.5,-251.67 2640.5,-259.33 2640.5,-259.33 2640.5,-263.17 2636.67,-267 2632.83,-267"/>
<text text-anchor="middle" x="2549" y="-251.8" font-family="Arial" font-size="14.00" fill="#c6c5fe">db/models/product.model.js</text>
</g>
<!-- db/models/index.js&#45;&gt;db/models/product.model.js -->
<g id="edge36" class="edge">
<title>db/models/index.js&#45;&gt;db/models/product.model.js</title>
<path fill="none" stroke="#757575" d="M1668.2,-207.06C1705.94,-221.61 1774.69,-245.86 1836,-255.5 2051.62,-289.41 2308.54,-276.54 2447.2,-265.29"/>
<polygon fill="#757575" stroke="#757575" points="2447.71,-268.76 2457.38,-264.45 2447.13,-261.78 2447.71,-268.76"/>
</g>
<!-- db/models/order&#45;product.model.js&#45;&gt;db/models/order.model.js -->
<g id="edge38" class="edge">
<title>db/models/order&#45;product.model.js&#45;&gt;db/models/order.model.js</title>
<path fill="none" stroke="#757575" d="M2104.14,-224C2142.01,-219.29 2185.75,-213.86 2223.73,-209.14"/>
<polygon fill="#757575" stroke="#757575" points="2224.27,-212.6 2233.76,-207.9 2223.41,-205.66 2224.27,-212.6"/>
</g>
<!-- db/models/order&#45;product.model.js&#45;&gt;db/models/product.model.js -->
<g id="edge39" class="edge">
<title>db/models/order&#45;product.model.js&#45;&gt;db/models/product.model.js</title>
<path fill="none" stroke="#757575" d="M2120.07,-239.55C2215.79,-243.12 2354.15,-248.27 2447.4,-251.75"/>
<polygon fill="#757575" stroke="#757575" points="2447.28,-255.25 2457.41,-252.12 2447.54,-248.25 2447.28,-255.25"/>
</g>
<!-- db/models/order.model.js&#45;&gt;db/models/customer.model.js -->
<g id="edge40" class="edge">
<title>db/models/order.model.js&#45;&gt;db/models/customer.model.js</title>
<path fill="none" stroke="#757575" d="M2388.68,-186C2413.84,-181.81 2442.48,-177.05 2468.47,-172.73"/>
<polygon fill="#757575" stroke="#757575" points="2469.37,-176.12 2478.66,-171.03 2468.22,-169.22 2469.37,-176.12"/>
</g>
<!-- db/models/order.model.js&#45;&gt;db/models/product.model.js -->
<g id="edge41" class="edge">
<title>db/models/order.model.js&#45;&gt;db/models/product.model.js</title>
<path fill="none" stroke="#757575" d="M2364.92,-209.03C2401.67,-218.36 2453.59,-231.53 2492.75,-241.48"/>
<polygon fill="#757575" stroke="#757575" points="2492.11,-244.93 2502.67,-243.99 2493.84,-238.14 2492.11,-244.93"/>
</g>
<!-- db/models/product.model.js&#45;&gt;db/models/category.model.js -->
<g id="edge42" class="edge">
<title>db/models/product.model.js&#45;&gt;db/models/category.model.js</title>
<path fill="none" stroke="#757575" d="M2618.27,-267C2643.1,-271.19 2671.36,-275.95 2697.01,-280.27"/>
<polygon fill="#757575" stroke="#757575" points="2696.63,-283.76 2707.07,-281.97 2697.79,-276.86 2696.63,-283.76"/>
</g>
<!-- index.js -->
<g id="node29" class="node">
<title>index.js</title>
<path fill="none" stroke="#c6c5fe" d="M54.33,-282C54.33,-282 7.67,-282 7.67,-282 3.83,-282 0,-278.17 0,-274.33 0,-274.33 0,-266.67 0,-266.67 0,-262.83 3.83,-259 7.67,-259 7.67,-259 54.33,-259 54.33,-259 58.17,-259 62,-262.83 62,-266.67 62,-266.67 62,-274.33 62,-274.33 62,-278.17 58.17,-282 54.33,-282"/>
<text text-anchor="middle" x="31" y="-266.8" font-family="Arial" font-size="14.00" fill="#c6c5fe">index.js</text>
</g>
<!-- index.js&#45;&gt;controllers/orchestrator/index.js -->
<g id="edge43" class="edge">
<title>index.js&#45;&gt;controllers/orchestrator/index.js</title>
<path fill="none" stroke="#757575" d="M52.23,-282.06C98.73,-308.42 217.11,-374.31 320,-421.5 339.33,-430.36 361.22,-439.18 379.67,-446.27"/>
<polygon fill="#757575" stroke="#757575" points="378.66,-449.63 389.25,-449.91 381.15,-443.08 378.66,-449.63"/>
</g>
<!-- middlewares/error.handler.js -->
<g id="node30" class="node">
<title>middlewares/error.handler.js</title>
<path fill="none" stroke="#cfffac" d="M276.33,-241C276.33,-241 105.67,-241 105.67,-241 101.83,-241 98,-237.17 98,-233.33 98,-233.33 98,-225.67 98,-225.67 98,-221.83 101.83,-218 105.67,-218 105.67,-218 276.33,-218 276.33,-218 280.17,-218 284,-221.83 284,-225.67 284,-225.67 284,-233.33 284,-233.33 284,-237.17 280.17,-241 276.33,-241"/>
<text text-anchor="middle" x="191" y="-225.8" font-family="Arial" font-size="14.00" fill="#cfffac">middlewares/error.handler.js</text>
</g>
<!-- index.js&#45;&gt;middlewares/error.handler.js -->
<g id="edge44" class="edge">
<title>index.js&#45;&gt;middlewares/error.handler.js</title>
<path fill="none" stroke="#757575" d="M62.05,-260.28C73.27,-256.64 86.15,-252.67 98,-249.5 106.06,-247.35 114.56,-245.26 123.01,-243.29"/>
<polygon fill="#757575" stroke="#757575" points="123.9,-246.68 132.87,-241.05 122.34,-239.85 123.9,-246.68"/>
</g>
<!-- router/index.js -->
<g id="node31" class="node">
<title>router/index.js</title>
<path fill="none" stroke="#c6c5fe" d="M233.83,-282C233.83,-282 148.17,-282 148.17,-282 144.33,-282 140.5,-278.17 140.5,-274.33 140.5,-274.33 140.5,-266.67 140.5,-266.67 140.5,-262.83 144.33,-259 148.17,-259 148.17,-259 233.83,-259 233.83,-259 237.67,-259 241.5,-262.83 241.5,-266.67 241.5,-266.67 241.5,-274.33 241.5,-274.33 241.5,-278.17 237.67,-282 233.83,-282"/>
<text text-anchor="middle" x="191" y="-266.8" font-family="Arial" font-size="14.00" fill="#c6c5fe">router/index.js</text>
</g>
<!-- index.js&#45;&gt;router/index.js -->
<g id="edge45" class="edge">
<title>index.js&#45;&gt;router/index.js</title>
<path fill="none" stroke="#757575" d="M62.09,-270.5C81.35,-270.5 107.02,-270.5 130.3,-270.5"/>
<polygon fill="#757575" stroke="#757575" points="130.45,-274 140.45,-270.5 130.45,-267 130.45,-274"/>
</g>
<!-- router/admin/index.js -->
<g id="node34" class="node">
<title>router/admin/index.js</title>
<path fill="none" stroke="#c6c5fe" d="M485.83,-412C485.83,-412 358.17,-412 358.17,-412 354.33,-412 350.5,-408.17 350.5,-404.33 350.5,-404.33 350.5,-396.67 350.5,-396.67 350.5,-392.83 354.33,-389 358.17,-389 358.17,-389 485.83,-389 485.83,-389 489.67,-389 493.5,-392.83 493.5,-396.67 493.5,-396.67 493.5,-404.33 493.5,-404.33 493.5,-408.17 489.67,-412 485.83,-412"/>
<text text-anchor="middle" x="422" y="-396.8" font-family="Arial" font-size="14.00" fill="#c6c5fe">router/admin/index.js</text>
</g>
<!-- router/index.js&#45;&gt;router/admin/index.js -->
<g id="edge61" class="edge">
<title>router/index.js&#45;&gt;router/admin/index.js</title>
<path fill="none" stroke="#757575" d="M212.32,-282.04C253.06,-305.16 344.84,-357.27 391.93,-384"/>
<polygon fill="#757575" stroke="#757575" points="390.3,-387.1 400.72,-388.99 393.75,-381.01 390.3,-387.1"/>
</g>
<!-- router/customers.router.js -->
<g id="node40" class="node">
<title>router/customers.router.js</title>
<path fill="none" stroke="#c6c5fe" d="M790.83,-310C790.83,-310 636.17,-310 636.17,-310 632.33,-310 628.5,-306.17 628.5,-302.33 628.5,-302.33 628.5,-294.67 628.5,-294.67 628.5,-290.83 632.33,-287 636.17,-287 636.17,-287 790.83,-287 790.83,-287 794.67,-287 798.5,-290.83 798.5,-294.67 798.5,-294.67 798.5,-302.33 798.5,-302.33 798.5,-306.17 794.67,-310 790.83,-310"/>
<text text-anchor="middle" x="713.5" y="-294.8" font-family="Arial" font-size="14.00" fill="#c6c5fe">router/customers.router.js</text>
</g>
<!-- router/index.js&#45;&gt;router/customers.router.js -->
<g id="edge62" class="edge">
<title>router/index.js&#45;&gt;router/customers.router.js</title>
<path fill="none" stroke="#757575" d="M241.91,-273.18C328.39,-277.84 507.44,-287.47 618.04,-293.42"/>
<polygon fill="#757575" stroke="#757575" points="618.02,-296.92 628.19,-293.96 618.39,-289.93 618.02,-296.92"/>
</g>
<!-- router/orders.router.js -->
<g id="node43" class="node">
<title>router/orders.router.js</title>
<path fill="none" stroke="#c6c5fe" d="M778.83,-254C778.83,-254 648.17,-254 648.17,-254 644.33,-254 640.5,-250.17 640.5,-246.33 640.5,-246.33 640.5,-238.67 640.5,-238.67 640.5,-234.83 644.33,-231 648.17,-231 648.17,-231 778.83,-231 778.83,-231 782.67,-231 786.5,-234.83 786.5,-238.67 786.5,-238.67 786.5,-246.33 786.5,-246.33 786.5,-250.17 782.67,-254 778.83,-254"/>
<text text-anchor="middle" x="713.5" y="-238.8" font-family="Arial" font-size="14.00" fill="#c6c5fe">router/orders.router.js</text>
</g>
<!-- router/index.js&#45;&gt;router/orders.router.js -->
<g id="edge63" class="edge">
<title>router/index.js&#45;&gt;router/orders.router.js</title>
<path fill="none" stroke="#757575" d="M241.91,-267.82C331.63,-262.99 520.99,-252.8 630.18,-246.93"/>
<polygon fill="#757575" stroke="#757575" points="630.69,-250.41 640.49,-246.37 630.31,-243.42 630.69,-250.41"/>
</g>
<!-- router/products.router.js -->
<g id="node44" class="node">
<title>router/products.router.js</title>
<path fill="none" stroke="#c6c5fe" d="M785.33,-182C785.33,-182 641.67,-182 641.67,-182 637.83,-182 634,-178.17 634,-174.33 634,-174.33 634,-166.67 634,-166.67 634,-162.83 637.83,-159 641.67,-159 641.67,-159 785.33,-159 785.33,-159 789.17,-159 793,-162.83 793,-166.67 793,-166.67 793,-174.33 793,-174.33 793,-178.17 789.17,-182 785.33,-182"/>
<text text-anchor="middle" x="713.5" y="-166.8" font-family="Arial" font-size="14.00" fill="#c6c5fe">router/products.router.js</text>
</g>
<!-- router/index.js&#45;&gt;router/products.router.js -->
<g id="edge64" class="edge">
<title>router/index.js&#45;&gt;router/products.router.js</title>
<path fill="none" stroke="#757575" d="M241.91,-260.91C335.08,-243.01 535.7,-204.47 642.41,-183.97"/>
<polygon fill="#757575" stroke="#757575" points="643.27,-187.36 652.43,-182.04 641.95,-180.49 643.27,-187.36"/>
</g>
<!-- router/users.router.js -->
<g id="node45" class="node">
<title>router/users.router.js</title>
<path fill="none" stroke="#c6c5fe" d="M775.83,-80C775.83,-80 651.17,-80 651.17,-80 647.33,-80 643.5,-76.17 643.5,-72.33 643.5,-72.33 643.5,-64.67 643.5,-64.67 643.5,-60.83 647.33,-57 651.17,-57 651.17,-57 775.83,-57 775.83,-57 779.67,-57 783.5,-60.83 783.5,-64.67 783.5,-64.67 783.5,-72.33 783.5,-72.33 783.5,-76.17 779.67,-80 775.83,-80"/>
<text text-anchor="middle" x="713.5" y="-64.8" font-family="Arial" font-size="14.00" fill="#c6c5fe">router/users.router.js</text>
</g>
<!-- router/index.js&#45;&gt;router/users.router.js -->
<g id="edge65" class="edge">
<title>router/index.js&#45;&gt;router/users.router.js</title>
<path fill="none" stroke="#757575" d="M241.6,-265.36C256.04,-262.28 271.33,-257.35 284,-249.5 305.48,-236.19 299.3,-219.98 320,-205.5 417.89,-137.02 553.28,-99.82 636.75,-82.08"/>
<polygon fill="#757575" stroke="#757575" points="637.59,-85.48 646.67,-80.01 636.17,-78.63 637.59,-85.48"/>
</g>
<!-- libs/sequelize.js&#45;&gt;config/config.js -->
<g id="edge46" class="edge">
<title>libs/sequelize.js&#45;&gt;config/config.js</title>
<path fill="none" stroke="#757575" d="M1400.16,-282.87C1580.86,-300.75 2149.56,-358.14 2185,-375.5 2238.99,-401.95 2283.52,-459.6 2304.51,-490.31"/>
<polygon fill="#757575" stroke="#757575" points="2301.79,-492.54 2310.25,-498.91 2307.61,-488.65 2301.79,-492.54"/>
</g>
<!-- libs/sequelize.js&#45;&gt;db/models/index.js -->
<g id="edge47" class="edge">
<title>libs/sequelize.js&#45;&gt;db/models/index.js</title>
<path fill="none" stroke="#757575" d="M1386.72,-265.93C1439.22,-251.18 1529.92,-225.71 1586.66,-209.78"/>
<polygon fill="#757575" stroke="#757575" points="1587.81,-213.09 1596.49,-207.02 1585.92,-206.35 1587.81,-213.09"/>
</g>
<!-- middlewares/validator.handler.js -->
<g id="node33" class="node">
<title>middlewares/validator.handler.js</title>
<path fill="none" stroke="#cfffac" d="M1154.33,-269C1154.33,-269 960.67,-269 960.67,-269 956.83,-269 953,-265.17 953,-261.33 953,-261.33 953,-253.67 953,-253.67 953,-249.83 956.83,-246 960.67,-246 960.67,-246 1154.33,-246 1154.33,-246 1158.17,-246 1162,-249.83 1162,-253.67 1162,-253.67 1162,-261.33 1162,-261.33 1162,-265.17 1158.17,-269 1154.33,-269"/>
<text text-anchor="middle" x="1057.5" y="-253.8" font-family="Arial" font-size="14.00" fill="#cfffac">middlewares/validator.handler.js</text>
</g>
<!-- router/admin/instagram.router.js -->
<g id="node35" class="node">
<title>router/admin/instagram.router.js</title>
<path fill="none" stroke="#c6c5fe" d="M810.33,-595C810.33,-595 616.67,-595 616.67,-595 612.83,-595 609,-591.17 609,-587.33 609,-587.33 609,-579.67 609,-579.67 609,-575.83 612.83,-572 616.67,-572 616.67,-572 810.33,-572 810.33,-572 814.17,-572 818,-575.83 818,-579.67 818,-579.67 818,-587.33 818,-587.33 818,-591.17 814.17,-595 810.33,-595"/>
<text text-anchor="middle" x="713.5" y="-579.8" font-family="Arial" font-size="14.00" fill="#c6c5fe">router/admin/instagram.router.js</text>
</g>
<!-- router/admin/index.js&#45;&gt;router/admin/instagram.router.js -->
<g id="edge48" class="edge">
<title>router/admin/index.js&#45;&gt;router/admin/instagram.router.js</title>
<path fill="none" stroke="#757575" d="M463.54,-412.12C482.92,-418.84 505.8,-428.56 524,-441.5 543.77,-455.55 541.73,-466.55 560,-482.5 599.09,-516.62 650.39,-548.32 682.4,-566.8"/>
<polygon fill="#757575" stroke="#757575" points="680.87,-569.95 691.29,-571.87 684.34,-563.88 680.87,-569.95"/>
</g>
<!-- router/admin/notion.router.js -->
<g id="node36" class="node">
<title>router/admin/notion.router.js</title>
<path fill="none" stroke="#c6c5fe" d="M798.33,-391C798.33,-391 628.67,-391 628.67,-391 624.83,-391 621,-387.17 621,-383.33 621,-383.33 621,-375.67 621,-375.67 621,-371.83 624.83,-368 628.67,-368 628.67,-368 798.33,-368 798.33,-368 802.17,-368 806,-371.83 806,-375.67 806,-375.67 806,-383.33 806,-383.33 806,-387.17 802.17,-391 798.33,-391"/>
<text text-anchor="middle" x="713.5" y="-375.8" font-family="Arial" font-size="14.00" fill="#c6c5fe">router/admin/notion.router.js</text>
</g>
<!-- router/admin/index.js&#45;&gt;router/admin/notion.router.js -->
<g id="edge49" class="edge">
<title>router/admin/index.js&#45;&gt;router/admin/notion.router.js</title>
<path fill="none" stroke="#757575" d="M493.82,-395.36C528.93,-392.82 571.98,-389.69 610.56,-386.89"/>
<polygon fill="#757575" stroke="#757575" points="611.07,-390.37 620.79,-386.15 610.56,-383.39 611.07,-390.37"/>
</g>
<!-- router/admin/post.router.js -->
<g id="node37" class="node">
<title>router/admin/post.router.js</title>
<path fill="none" stroke="#c6c5fe" d="M792.83,-432C792.83,-432 634.17,-432 634.17,-432 630.33,-432 626.5,-428.17 626.5,-424.33 626.5,-424.33 626.5,-416.67 626.5,-416.67 626.5,-412.83 630.33,-409 634.17,-409 634.17,-409 792.83,-409 792.83,-409 796.67,-409 800.5,-412.83 800.5,-416.67 800.5,-416.67 800.5,-424.33 800.5,-424.33 800.5,-428.17 796.67,-432 792.83,-432"/>
<text text-anchor="middle" x="713.5" y="-416.8" font-family="Arial" font-size="14.00" fill="#c6c5fe">router/admin/post.router.js</text>
</g>
<!-- router/admin/index.js&#45;&gt;router/admin/post.router.js -->
<g id="edge50" class="edge">
<title>router/admin/index.js&#45;&gt;router/admin/post.router.js</title>
<path fill="none" stroke="#757575" d="M493.82,-405.39C530.7,-407.94 576.34,-411.09 616.36,-413.86"/>
<polygon fill="#757575" stroke="#757575" points="616.19,-417.35 626.41,-414.55 616.67,-410.37 616.19,-417.35"/>
</g>
<!-- router/admin/instagram.router.js&#45;&gt;controllers/upload.js -->
<g id="edge51" class="edge">
<title>router/admin/instagram.router.js&#45;&gt;controllers/upload.js</title>
<path fill="none" stroke="#757575" d="M818.04,-583.5C869.69,-583.5 931.12,-583.5 978.7,-583.5"/>
<polygon fill="#757575" stroke="#757575" points="978.94,-587 988.93,-583.5 978.93,-580 978.94,-587"/>
</g>
<!-- services/admin/instagram.services.js -->
<g id="node38" class="node">
<title>services/admin/instagram.services.js</title>
<path fill="none" stroke="#c6c5fe" d="M1168.83,-636C1168.83,-636 946.17,-636 946.17,-636 942.33,-636 938.5,-632.17 938.5,-628.33 938.5,-628.33 938.5,-620.67 938.5,-620.67 938.5,-616.83 942.33,-613 946.17,-613 946.17,-613 1168.83,-613 1168.83,-613 1172.67,-613 1176.5,-616.83 1176.5,-620.67 1176.5,-620.67 1176.5,-628.33 1176.5,-628.33 1176.5,-632.17 1172.67,-636 1168.83,-636"/>
<text text-anchor="middle" x="1057.5" y="-620.8" font-family="Arial" font-size="14.00" fill="#c6c5fe">services/admin/instagram.services.js</text>
</g>
<!-- router/admin/instagram.router.js&#45;&gt;services/admin/instagram.services.js -->
<g id="edge52" class="edge">
<title>router/admin/instagram.router.js&#45;&gt;services/admin/instagram.services.js</title>
<path fill="none" stroke="#757575" d="M810.68,-595.03C854.21,-600.25 905.8,-606.43 950.45,-611.79"/>
<polygon fill="#757575" stroke="#757575" points="950.11,-615.27 960.45,-612.99 950.94,-608.32 950.11,-615.27"/>
</g>
<!-- router/admin/notion.router.js&#45;&gt;services/admin/notion.services.js -->
<g id="edge55" class="edge">
<title>router/admin/notion.router.js&#45;&gt;services/admin/notion.services.js</title>
<path fill="none" stroke="#757575" d="M806.26,-375.49C828.24,-378.74 850.18,-386.03 867,-400.5 909.86,-437.37 860.01,-485.79 903,-522.5 913.69,-531.63 926.42,-537.86 939.91,-542"/>
<polygon fill="#757575" stroke="#757575" points="939.28,-545.46 949.85,-544.66 941.09,-538.69 939.28,-545.46"/>
</g>
<!-- router/admin/notion.router.js&#45;&gt;middlewares/validator.handler.js -->
<g id="edge53" class="edge">
<title>router/admin/notion.router.js&#45;&gt;middlewares/validator.handler.js</title>
<path fill="none" stroke="#757575" d="M758.28,-367.99C790.33,-358.2 833.82,-341.96 867,-318.5 886.8,-304.5 881.6,-288.91 903,-277.5 915.31,-270.94 928.93,-266.21 942.84,-262.85"/>
<polygon fill="#757575" stroke="#757575" points="943.97,-266.19 953,-260.64 942.48,-259.35 943.97,-266.19"/>
</g>
<!-- schemas/notion/products.schemas.js -->
<g id="node39" class="node">
<title>schemas/notion/products.schemas.js</title>
<path fill="none" stroke="#cfffac" d="M1169.33,-392C1169.33,-392 945.67,-392 945.67,-392 941.83,-392 938,-388.17 938,-384.33 938,-384.33 938,-376.67 938,-376.67 938,-372.83 941.83,-369 945.67,-369 945.67,-369 1169.33,-369 1169.33,-369 1173.17,-369 1177,-372.83 1177,-376.67 1177,-376.67 1177,-384.33 1177,-384.33 1177,-388.17 1173.17,-392 1169.33,-392"/>
<text text-anchor="middle" x="1057.5" y="-376.8" font-family="Arial" font-size="14.00" fill="#cfffac">schemas/notion/products.schemas.js</text>
</g>
<!-- router/admin/notion.router.js&#45;&gt;schemas/notion/products.schemas.js -->
<g id="edge54" class="edge">
<title>router/admin/notion.router.js&#45;&gt;schemas/notion/products.schemas.js</title>
<path fill="none" stroke="#757575" d="M806.15,-379.77C843.45,-379.88 887.23,-380.01 927.65,-380.12"/>
<polygon fill="#757575" stroke="#757575" points="927.84,-383.62 937.85,-380.15 927.86,-376.62 927.84,-383.62"/>
</g>
<!-- router/admin/post.router.js&#45;&gt;services/admin/notion.services.js -->
<g id="edge57" class="edge">
<title>router/admin/post.router.js&#45;&gt;services/admin/notion.services.js</title>
<path fill="none" stroke="#757575" d="M800.65,-417.45C824.04,-420.39 848.1,-427.29 867,-441.5 898.49,-465.18 871.43,-498.94 903,-522.5 914.01,-530.71 926.73,-536.44 940.06,-540.36"/>
<polygon fill="#757575" stroke="#757575" points="939.29,-543.77 949.85,-542.89 941.05,-537 939.29,-543.77"/>
</g>
<!-- router/admin/post.router.js&#45;&gt;middlewares/validator.handler.js -->
<g id="edge56" class="edge">
<title>router/admin/post.router.js&#45;&gt;middlewares/validator.handler.js</title>
<path fill="none" stroke="#757575" d="M800.68,-425.9C824.48,-423.25 848.75,-416.13 867,-400.5 910.26,-363.45 859.72,-314.53 903,-277.5 914.56,-267.61 928.51,-261.12 943.23,-257"/>
<polygon fill="#757575" stroke="#757575" points="944.11,-260.39 953,-254.62 942.45,-253.59 944.11,-260.39"/>
</g>
<!-- services/admin/instagram.services.js&#45;&gt;controllers/Instagram/index.js -->
<g id="edge75" class="edge">
<title>services/admin/instagram.services.js&#45;&gt;controllers/Instagram/index.js</title>
<path fill="none" stroke="#757575" d="M1098.13,-636.04C1149.35,-650.96 1238.54,-676.93 1294.12,-693.12"/>
<polygon fill="#757575" stroke="#757575" points="1293.17,-696.49 1303.75,-695.92 1295.13,-689.77 1293.17,-696.49"/>
</g>
<!-- services/admin/instagram.services.js&#45;&gt;controllers/fs/fsUtil.js -->
<g id="edge76" class="edge">
<title>services/admin/instagram.services.js&#45;&gt;controllers/fs/fsUtil.js</title>
<path fill="none" stroke="#757575" d="M1176.62,-621.91C1189.34,-618.01 1201.46,-612.4 1212,-604.5 1243.85,-580.62 1217.22,-547.74 1248,-522.5 1253,-518.4 1258.62,-515.06 1264.57,-512.34"/>
<polygon fill="#757575" stroke="#757575" points="1266.14,-515.48 1274.15,-508.55 1263.56,-508.97 1266.14,-515.48"/>
</g>
<!-- router/customers.router.js&#45;&gt;middlewares/validator.handler.js -->
<g id="edge58" class="edge">
<title>router/customers.router.js&#45;&gt;middlewares/validator.handler.js</title>
<path fill="none" stroke="#757575" d="M798.6,-288.42C844.4,-282.93 901.52,-276.08 950.35,-270.23"/>
<polygon fill="#757575" stroke="#757575" points="950.81,-273.7 960.32,-269.03 949.98,-266.75 950.81,-273.7"/>
</g>
<!-- schemas/customer.schema.js -->
<g id="node41" class="node">
<title>schemas/customer.schema.js</title>
<path fill="none" stroke="#cfffac" d="M1147.83,-310C1147.83,-310 967.17,-310 967.17,-310 963.33,-310 959.5,-306.17 959.5,-302.33 959.5,-302.33 959.5,-294.67 959.5,-294.67 959.5,-290.83 963.33,-287 967.17,-287 967.17,-287 1147.83,-287 1147.83,-287 1151.67,-287 1155.5,-290.83 1155.5,-294.67 1155.5,-294.67 1155.5,-302.33 1155.5,-302.33 1155.5,-306.17 1151.67,-310 1147.83,-310"/>
<text text-anchor="middle" x="1057.5" y="-294.8" font-family="Arial" font-size="14.00" fill="#cfffac">schemas/customer.schema.js</text>
</g>
<!-- router/customers.router.js&#45;&gt;schemas/customer.schema.js -->
<g id="edge59" class="edge">
<title>router/customers.router.js&#45;&gt;schemas/customer.schema.js</title>
<path fill="none" stroke="#757575" d="M798.6,-298.5C844.02,-298.5 900.59,-298.5 949.16,-298.5"/>
<polygon fill="#757575" stroke="#757575" points="949.4,-302 959.4,-298.5 949.4,-295 949.4,-302"/>
</g>
<!-- services/customers.service.js -->
<g id="node42" class="node">
<title>services/customers.service.js</title>
<path fill="none" stroke="#c6c5fe" d="M1146.33,-351C1146.33,-351 968.67,-351 968.67,-351 964.83,-351 961,-347.17 961,-343.33 961,-343.33 961,-335.67 961,-335.67 961,-331.83 964.83,-328 968.67,-328 968.67,-328 1146.33,-328 1146.33,-328 1150.17,-328 1154,-331.83 1154,-335.67 1154,-335.67 1154,-343.33 1154,-343.33 1154,-347.17 1150.17,-351 1146.33,-351"/>
<text text-anchor="middle" x="1057.5" y="-335.8" font-family="Arial" font-size="14.00" fill="#c6c5fe">services/customers.service.js</text>
</g>
<!-- router/customers.router.js&#45;&gt;services/customers.service.js -->
<g id="edge60" class="edge">
<title>router/customers.router.js&#45;&gt;services/customers.service.js</title>
<path fill="none" stroke="#757575" d="M798.6,-308.58C844.58,-314.09 901.98,-320.98 950.94,-326.85"/>
<polygon fill="#757575" stroke="#757575" points="950.59,-330.33 960.94,-328.04 951.43,-323.38 950.59,-330.33"/>
</g>
<!-- services/customers.service.js&#45;&gt;libs/sequelize.js -->
<g id="edge83" class="edge">
<title>services/customers.service.js&#45;&gt;libs/sequelize.js</title>
<path fill="none" stroke="#757575" d="M1154.33,-328.89C1173.53,-326.07 1193.49,-322.62 1212,-318.5 1242.6,-311.69 1276.35,-301.1 1301.99,-292.39"/>
<polygon fill="#757575" stroke="#757575" points="1303.43,-295.6 1311.75,-289.03 1301.15,-288.98 1303.43,-295.6"/>
</g>
<!-- router/orders.router.js&#45;&gt;middlewares/validator.handler.js -->
<g id="edge66" class="edge">
<title>router/orders.router.js&#45;&gt;middlewares/validator.handler.js</title>
<path fill="none" stroke="#757575" d="M786.61,-245.66C831.81,-247.65 891.05,-250.24 942.51,-252.5"/>
<polygon fill="#757575" stroke="#757575" points="942.55,-256.01 952.69,-252.95 942.85,-249.01 942.55,-256.01"/>
</g>
<!-- schemas/order.schema.js -->
<g id="node46" class="node">
<title>schemas/order.schema.js</title>
<path fill="none" stroke="#cfffac" d="M1135.33,-187C1135.33,-187 979.67,-187 979.67,-187 975.83,-187 972,-183.17 972,-179.33 972,-179.33 972,-171.67 972,-171.67 972,-167.83 975.83,-164 979.67,-164 979.67,-164 1135.33,-164 1135.33,-164 1139.17,-164 1143,-167.83 1143,-171.67 1143,-171.67 1143,-179.33 1143,-179.33 1143,-183.17 1139.17,-187 1135.33,-187"/>
<text text-anchor="middle" x="1057.5" y="-171.8" font-family="Arial" font-size="14.00" fill="#cfffac">schemas/order.schema.js</text>
</g>
<!-- router/orders.router.js&#45;&gt;schemas/order.schema.js -->
<g id="edge67" class="edge">
<title>router/orders.router.js&#45;&gt;schemas/order.schema.js</title>
<path fill="none" stroke="#757575" d="M755.02,-230.96C792.99,-220.5 851.47,-205.25 903,-195.5 921.89,-191.93 942.21,-188.79 961.68,-186.12"/>
<polygon fill="#757575" stroke="#757575" points="962.33,-189.57 971.77,-184.77 961.4,-182.63 962.33,-189.57"/>
</g>
<!-- services/order.service.js -->
<g id="node47" class="node">
<title>services/order.service.js</title>
<path fill="none" stroke="#c6c5fe" d="M1130.33,-228C1130.33,-228 984.67,-228 984.67,-228 980.83,-228 977,-224.17 977,-220.33 977,-220.33 977,-212.67 977,-212.67 977,-208.83 980.83,-205 984.67,-205 984.67,-205 1130.33,-205 1130.33,-205 1134.17,-205 1138,-208.83 1138,-212.67 1138,-212.67 1138,-220.33 1138,-220.33 1138,-224.17 1134.17,-228 1130.33,-228"/>
<text text-anchor="middle" x="1057.5" y="-212.8" font-family="Arial" font-size="14.00" fill="#c6c5fe">services/order.service.js</text>
</g>
<!-- router/orders.router.js&#45;&gt;services/order.service.js -->
<g id="edge68" class="edge">
<title>router/orders.router.js&#45;&gt;services/order.service.js</title>
<path fill="none" stroke="#757575" d="M786.61,-237.02C839.01,-233.03 910.27,-227.62 966.42,-223.35"/>
<polygon fill="#757575" stroke="#757575" points="967.01,-226.81 976.72,-222.57 966.48,-219.83 967.01,-226.81"/>
</g>
<!-- router/products.router.js&#45;&gt;middlewares/validator.handler.js -->
<g id="edge69" class="edge">
<title>router/products.router.js&#45;&gt;middlewares/validator.handler.js</title>
<path fill="none" stroke="#757575" d="M751.43,-182.03C782.48,-191.91 827.92,-206.85 867,-221.5 883.23,-227.59 886.27,-231.95 903,-236.5 915.85,-239.99 929.46,-242.92 943.07,-245.37"/>
<polygon fill="#757575" stroke="#757575" points="942.52,-248.82 952.96,-247.07 943.7,-241.92 942.52,-248.82"/>
</g>
<!-- schemas/products.schemas.js -->
<g id="node48" class="node">
<title>schemas/products.schemas.js</title>
<path fill="none" stroke="#cfffac" d="M1149.33,-105C1149.33,-105 965.67,-105 965.67,-105 961.83,-105 958,-101.17 958,-97.33 958,-97.33 958,-89.67 958,-89.67 958,-85.83 961.83,-82 965.67,-82 965.67,-82 1149.33,-82 1149.33,-82 1153.17,-82 1157,-85.83 1157,-89.67 1157,-89.67 1157,-97.33 1157,-97.33 1157,-101.17 1153.17,-105 1149.33,-105"/>
<text text-anchor="middle" x="1057.5" y="-89.8" font-family="Arial" font-size="14.00" fill="#cfffac">schemas/products.schemas.js</text>
</g>
<!-- router/products.router.js&#45;&gt;schemas/products.schemas.js -->
<g id="edge70" class="edge">
<title>router/products.router.js&#45;&gt;schemas/products.schemas.js</title>
<path fill="none" stroke="#757575" d="M746.77,-158.97C783.97,-146.09 847.18,-125.49 903,-113.5 917.44,-110.4 932.76,-107.71 947.91,-105.39"/>
<polygon fill="#757575" stroke="#757575" points="948.45,-108.85 957.83,-103.92 947.42,-101.92 948.45,-108.85"/>
</g>
<!-- services/product.service.js -->
<g id="node49" class="node">
<title>services/product.service.js</title>
<path fill="none" stroke="#c6c5fe" d="M1137.33,-146C1137.33,-146 977.67,-146 977.67,-146 973.83,-146 970,-142.17 970,-138.33 970,-138.33 970,-130.67 970,-130.67 970,-126.83 973.83,-123 977.67,-123 977.67,-123 1137.33,-123 1137.33,-123 1141.17,-123 1145,-126.83 1145,-130.67 1145,-130.67 1145,-138.33 1145,-138.33 1145,-142.17 1141.17,-146 1137.33,-146"/>
<text text-anchor="middle" x="1057.5" y="-130.8" font-family="Arial" font-size="14.00" fill="#c6c5fe">services/product.service.js</text>
</g>
<!-- router/products.router.js&#45;&gt;services/product.service.js -->
<g id="edge71" class="edge">
<title>router/products.router.js&#45;&gt;services/product.service.js</title>
<path fill="none" stroke="#757575" d="M793.39,-162.2C842.97,-156.98 907.26,-150.21 959.88,-144.67"/>
<polygon fill="#757575" stroke="#757575" points="960.33,-148.14 969.91,-143.62 959.59,-141.18 960.33,-148.14"/>
</g>
<!-- router/users.router.js&#45;&gt;middlewares/validator.handler.js -->
<g id="edge72" class="edge">
<title>router/users.router.js&#45;&gt;middlewares/validator.handler.js</title>
<path fill="none" stroke="#757575" d="M751.73,-80.08C785.8,-92.38 835.55,-114.88 867,-149.5 895.14,-180.47 869.87,-210.94 903,-236.5 914.68,-245.51 928.4,-251.63 942.75,-255.67"/>
<polygon fill="#757575" stroke="#757575" points="942.22,-259.15 952.77,-258.15 943.9,-252.35 942.22,-259.15"/>
</g>
<!-- schemas/users.shema.js -->
<g id="node50" class="node">
<title>schemas/users.shema.js</title>
<path fill="none" stroke="#cfffac" d="M1133.33,-23C1133.33,-23 981.67,-23 981.67,-23 977.83,-23 974,-19.17 974,-15.33 974,-15.33 974,-7.67 974,-7.67 974,-3.83 977.83,0 981.67,0 981.67,0 1133.33,0 1133.33,0 1137.17,0 1141,-3.83 1141,-7.67 1141,-7.67 1141,-15.33 1141,-15.33 1141,-19.17 1137.17,-23 1133.33,-23"/>
<text text-anchor="middle" x="1057.5" y="-7.8" font-family="Arial" font-size="14.00" fill="#cfffac">schemas/users.shema.js</text>
</g>
<!-- router/users.router.js&#45;&gt;schemas/users.shema.js -->
<g id="edge73" class="edge">
<title>router/users.router.js&#45;&gt;schemas/users.shema.js</title>
<path fill="none" stroke="#757575" d="M768.37,-56.97C805.98,-49.16 857.41,-38.94 903,-31.5 922.63,-28.3 943.73,-25.28 963.82,-22.6"/>
<polygon fill="#757575" stroke="#757575" points="964.45,-26.05 973.91,-21.27 963.54,-19.11 964.45,-26.05"/>
</g>
<!-- services/users.services.js -->
<g id="node51" class="node">
<title>services/users.services.js</title>
<path fill="none" stroke="#c6c5fe" d="M1134.83,-64C1134.83,-64 980.17,-64 980.17,-64 976.33,-64 972.5,-60.17 972.5,-56.33 972.5,-56.33 972.5,-48.67 972.5,-48.67 972.5,-44.83 976.33,-41 980.17,-41 980.17,-41 1134.83,-41 1134.83,-41 1138.67,-41 1142.5,-44.83 1142.5,-48.67 1142.5,-48.67 1142.5,-56.33 1142.5,-56.33 1142.5,-60.17 1138.67,-64 1134.83,-64"/>
<text text-anchor="middle" x="1057.5" y="-48.8" font-family="Arial" font-size="14.00" fill="#c6c5fe">services/users.services.js</text>
</g>
<!-- router/users.router.js&#45;&gt;services/users.services.js -->
<g id="edge74" class="edge">
<title>router/users.router.js&#45;&gt;services/users.services.js</title>
<path fill="none" stroke="#757575" d="M783.71,-65.26C835.08,-62.86 905.72,-59.55 962.25,-56.91"/>
<polygon fill="#757575" stroke="#757575" points="962.44,-60.4 972.27,-56.44 962.12,-53.41 962.44,-60.4"/>
</g>
<!-- services/order.service.js&#45;&gt;libs/sequelize.js -->
<g id="edge84" class="edge">
<title>services/order.service.js&#45;&gt;libs/sequelize.js</title>
<path fill="none" stroke="#757575" d="M1138.23,-224.24C1162.1,-227.26 1188.24,-231.29 1212,-236.5 1242.62,-243.22 1276.37,-253.81 1302.01,-262.54"/>
<polygon fill="#757575" stroke="#757575" points="1301.17,-265.95 1311.76,-265.91 1303.45,-259.34 1301.17,-265.95"/>
</g>
<!-- services/product.service.js&#45;&gt;libs/sequelize.js -->
<g id="edge85" class="edge">
<title>services/product.service.js&#45;&gt;libs/sequelize.js</title>
<path fill="none" stroke="#757575" d="M1145.22,-136.36C1167.76,-139.34 1191.46,-144.81 1212,-154.5 1262.77,-178.45 1307.01,-229.32 1328.91,-257.56"/>
<polygon fill="#757575" stroke="#757575" points="1326.38,-260.02 1335.21,-265.87 1331.96,-255.79 1326.38,-260.02"/>
</g>
<!-- services/users.services.js&#45;&gt;libs/sequelize.js -->
<g id="edge86" class="edge">
<title>services/users.services.js&#45;&gt;libs/sequelize.js</title>
<path fill="none" stroke="#757575" d="M1142.66,-50.49C1166.54,-53.23 1191.57,-59.55 1212,-72.5 1281.79,-116.75 1321.66,-212.91 1336.62,-255.94"/>
<polygon fill="#757575" stroke="#757575" points="1333.39,-257.3 1339.89,-265.67 1340.02,-255.07 1333.39,-257.3"/>
</g>
<!-- services/admin/publications/collections.service.js&#45;&gt;controllers/fs/fsUtil.js -->
<g id="edge78" class="edge">
<title>services/admin/publications/collections.service.js&#45;&gt;controllers/fs/fsUtil.js</title>
<path fill="none" stroke="#757575" d="M1212.26,-501.5C1230.05,-501.5 1247.61,-501.5 1263.81,-501.5"/>
<polygon fill="#757575" stroke="#757575" points="1264.25,-505 1274.25,-501.5 1264.25,-498 1264.25,-505"/>
</g>
<!-- services/admin/publications/collections.service.js&#45;&gt;libs/sequelize.js -->
<g id="edge79" class="edge">
<title>services/admin/publications/collections.service.js&#45;&gt;libs/sequelize.js</title>
<path fill="none" stroke="#757575" d="M1182.18,-489.92C1192.7,-486.19 1202.82,-481.46 1212,-475.5 1279.33,-431.76 1320.27,-340.14 1336.05,-298.68"/>
<polygon fill="#757575" stroke="#757575" points="1339.42,-299.65 1339.6,-289.06 1332.85,-297.23 1339.42,-299.65"/>
</g>
</g>
</svg>
